<svg xmlns="http://www.w3.org/2000/svg" viewBox="0 0 150 40" width="150" height="40">
  <g transform="translate(4, 7)">
    <!-- Modern Blue Heart -->
    <path d="M 12 21.35 l -1.45 -1.32 C 5.4 15.36 2 12.28 2 8.5 C 2 5.42 4.42 3 7.5 3 c 1.74 0 3.41 0.81 4.5 2.09 C 13.09 3.81 14.76 3 16.5 3 C 19.58 3 22 5.42 22 8.5 c 0 3.78 -3.4 6.86 -8.55 11.54 L 12 21.35 Z" fill="#2563eb" />
    
    <!-- White Medical Cross cutout inside the heart -->
    <path d="M 11 8 h 2 v 2 h 2 v 2 h -2 v 2 h -2 v -2 h -2 v -2 h 2 z" fill="#ffffff" />
  </g>
  
  <!-- MediCare Text -->
  <text x="36" y="27" font-family="system-ui, -apple-system, BlinkMacSystemFont, 'Segoe UI', Roboto, sans-serif" font-size="22" font-weight="700" letter-spacing="-0.5" fill="#374151">
    Medi<tspan fill="#2563eb">Care</tspan>
  </text>
</svg>
